[img]http://img145.imageshack.us/img145/8268/takentj.jpg[/img]

[b][size=200][color=black]PLOT[/color][/size][/b]

[code]A retired CIA agent travels across Europe and relies on his old skills
to save his estranged daughter, who was kidnapped on a trip to Paris to be
sold into prostitution.[/code]

[b][size=200][color=black]IMDB[/color][/size][/b]

[code]http://www.imdb.com/title/tt0936501/[/code]

[b][size=200][color=black]MOVIE INFO[/color][/size][/b]

[code]Taken [2008] DvdRip x264 AAC-V3nom

Format                                   : MPEG-4
Format profile                           : Base Media / Version 2
Codec ID                                 : mp42
File size                                : 354 MiB
Duration                                 : 1h 33mn
Overall bit rate mode                    : Variable
Overall bit rate                         : 531 Kbps
Encoded date                             : UTC 2012-11-11 20:43:39
Tagged date                              : UTC 2012-11-11 21:17:26

Video
ID                                       : 1
Format                                   : AVC
Format/Info                              : Advanced Video Codec
Format profile                           : Main@L2.1
Format settings, CABAC                   : Yes
Format settings, ReFrames                : 4 frames
Codec ID                                 : avc1
Codec ID/Info                            : Advanced Video Coding
Duration                                 : 1h 33mn
Bit rate mode                            : Variable
Bit rate                                 : 392 Kbps
Width                                    : 694 pixels
Height                                   : 284 pixels
Display aspect ratio                     : 2.40:1
Frame rate mode                          : Variable
Frame rate                               : 23.976 fps
Minimum frame rate                       : 23.974 fps
Maximum frame rate                       : 23.981 fps
Color space                              : YUV
Chroma subsampling                       : 4:2:0
Bit depth                                : 8 bits
Scan type                                : Progressive
Bits/(Pixel*Frame)                       : 0.083
Stream size                              : 266 MiB (75%)
Writing library                          : x264 core

Audio
ID                                       : 2
Format                                   : AAC
Format/Info                              : Advanced Audio Codec
Format profile                           : LC
Codec ID                                 : 40
Duration                                 : 1h 33mn
Bit rate mode                            : Variable
Bit rate                                 : 128 Kbps
Maximum bit rate                         : 233 Kbps
Channel(s)                               : 2 channels
Channel positions                        : Front: L R
Sampling rate                            : 48.0 KHz
Compression mode                         : Lossy
Delay relative to video                  : 83ms
Stream size                              : 85.4 MiB (24%)
Encoded date                             : UTC 2012-11-11 20:43:39
Tagged date                              : UTC 2012-11-11 21:17:22[/code]

[b][size=200][color=black]SCREENSHOTS[/color][/size][/b]

[img]http://img594.imageshack.us/img594/1305/taken2008dvdripx264aacv.jpg[/img]

[img]http://kastatic.com/i2/users/133df62bbf28e62494bb17fe11078f1a.gif[/img][img]http://kastatic.com/i2/users/133df62bbf28e62494bb17fe11078f1a.gif[/img]